<svg xmlns="http://www.w3.org/2000/svg" viewBox="0 0 512 512">
		<path d="M445.793 512H128V0h317.793c9.754 0 17.655 7.9 17.655 17.655v476.69c0 9.754-7.9 17.655-17.655 17.655" fill="#424A60"/>
		<path d="M128 512H92.69c-9.754 0-17.655-7.9-17.655-17.655V17.655C75.035 7.9 82.935 0 92.69 0H128v512z" fill="#586789"/>
		<g fill="#CCD0D3">
		<path d="M92.69 52.966H57.38c-4.873 0-8.828-3.946-8.828-8.828s3.955-8.828 8.828-8.828h35.31c4.873 0 8.828 3.946 8.828 8.828s-3.956 8.828-8.828 8.828M92.69 123.586H57.38c-4.873 0-8.828-3.946-8.828-8.828s3.955-8.828 8.828-8.828h35.31c4.873 0 8.828 3.946 8.828 8.828s-3.956 8.828-8.828 8.828M92.69 194.207H57.38c-4.873 0-8.828-3.946-8.828-8.828 0-4.883 3.955-8.83 8.828-8.83h35.31c4.873 0 8.828 3.947 8.828 8.83 0 4.88-3.956 8.827-8.828 8.827M92.69 264.828H57.38c-4.873 0-8.828-3.946-8.828-8.828s3.955-8.828 8.828-8.828h35.31c4.873 0 8.828 3.946 8.828 8.828s-3.956 8.828-8.828 8.828M92.69 335.448H57.38c-4.873 0-8.828-3.946-8.828-8.828s3.955-8.828 8.828-8.828h35.31c4.873 0 8.828 3.946 8.828 8.828s-3.956 8.828-8.828 8.828M92.69 406.07H57.38c-4.873 0-8.828-3.947-8.828-8.83 0-4.88 3.955-8.827 8.828-8.827h35.31c4.873 0 8.828 3.946 8.828 8.828 0 4.883-3.956 8.83-8.828 8.83M92.69 476.69H57.38c-4.873 0-8.828-3.946-8.828-8.828s3.955-8.828 8.828-8.828h35.31c4.873 0 8.828 3.946 8.828 8.828s-3.956 8.828-8.828 8.828"/>
		</g>
		<path d="M331.034 406.07c0-29.256-23.71-52.967-52.966-52.967s-52.966 23.71-52.966 52.966 23.71 52.965 52.966 52.965 52.966-23.71 52.966-52.966" fill="#25AE88"/>
		<path d="M348.69 344.276v35.31h-24.797c4.51 7.795 7.142 16.825 7.142 26.483 0 7.273-1.474 14.203-4.122 20.514 6.444 3.69 13.815 5.967 21.778 5.967 24.374 0 44.14-19.764 44.14-44.137s-19.767-44.137-44.14-44.137" fill="#CC4B4C"/>
		<path d="M260.414 291.31v23.5l19.897 7.238-11.625 31.938c3.054-.547 6.18-.883 9.384-.883 19.596 0 36.66 10.664 45.823 26.483h24.797V291.31h-88.276z" fill="#F0CE49"/>
		<path d="M268.687 353.983l11.626-31.93-66.366-24.15-24.152 66.356 42.39 15.43c7.653-13.278 20.877-22.91 36.502-25.707" fill="#CC4B4C"/>
		<g fill="#586789">
		<path d="M278.07 97.103h-88.277c-4.873 0-8.828-3.946-8.828-8.828s3.955-8.828 8.828-8.828h88.276c4.872 0 8.827 3.946 8.827 8.828s-3.955 8.828-8.828 8.828M401.655 158.897h-61.793c-4.873 0-8.828-3.946-8.828-8.828s3.955-8.83 8.828-8.83h61.793c4.873 0 8.828 3.947 8.828 8.83s-3.955 8.827-8.828 8.827M286.9 158.897H225.11c-4.882 0-8.828-3.946-8.828-8.828s3.946-8.83 8.828-8.83H286.9c4.874 0 8.83 3.947 8.83 8.83s-3.956 8.827-8.83 8.827M189.793 158.897h-17.655c-4.873 0-8.828-3.946-8.828-8.828s3.955-8.83 8.828-8.83h17.655c4.873 0 8.828 3.947 8.828 8.83s-3.954 8.827-8.827 8.827M401.655 194.207H384c-4.873 0-8.828-3.946-8.828-8.828 0-4.883 3.955-8.83 8.828-8.83h17.655c4.873 0 8.828 3.947 8.828 8.83 0 4.88-3.955 8.827-8.828 8.827M348.69 194.207h-88.276c-4.873 0-8.828-3.946-8.828-8.828 0-4.883 3.955-8.83 8.828-8.83h88.276c4.873 0 8.828 3.947 8.828 8.83 0 4.88-3.956 8.827-8.828 8.827M207.453 194.207h-35.31c-4.882 0-8.828-3.946-8.828-8.828 0-4.883 3.946-8.83 8.828-8.83h35.31c4.873 0 8.828 3.947 8.828 8.83 0 4.88-3.954 8.827-8.827 8.827M401.655 229.517H313.38c-4.874 0-8.83-3.946-8.83-8.828s3.956-8.83 8.83-8.83h88.275c4.873 0 8.828 3.947 8.828 8.83s-3.955 8.827-8.828 8.827M260.414 229.517h-35.31c-4.873 0-8.828-3.946-8.828-8.828s3.955-8.83 8.828-8.83h35.31c4.873 0 8.828 3.947 8.828 8.83s-3.955 8.827-8.828 8.827M189.793 229.517h-17.655c-4.873 0-8.828-3.946-8.828-8.828s3.955-8.83 8.828-8.83h17.655c4.873 0 8.828 3.947 8.828 8.83s-3.954 8.827-8.827 8.827"/>
		</g>
	</svg>